<?xml version="1.0" encoding="UTF-8" standalone="no"?>
<svg
   xmlns:dc="http://purl.org/dc/elements/1.1/"
   xmlns:cc="http://creativecommons.org/ns#"
   xmlns:rdf="http://www.w3.org/1999/02/22-rdf-syntax-ns#"
   xmlns:svg="http://www.w3.org/2000/svg"
   xmlns="http://www.w3.org/2000/svg"
   xmlns:sodipodi="http://sodipodi.sourceforge.net/DTD/sodipodi-0.dtd"
   xmlns:inkscape="http://www.inkscape.org/namespaces/inkscape"
   version="1.1"
   id="svg2"
   x="0px"
   y="0px"
   width="30"
   height="20"
   viewBox="0 -15 375 291.66667"
   enable-background="new 0 0 400 350"
   xml:space="preserve"
   sodipodi:docname="NVIDIA_dark.svg"
   inkscape:version="1.0 (4035a4fb49, 2020-05-01)"><metadata
   id="metadata10"><rdf:RDF><cc:Work
       rdf:about=""><dc:format>image/svg+xml</dc:format><dc:type
         rdf:resource="http://purl.org/dc/dcmitype/StillImage" /><dc:title>generated by pstoedit version:3.44 from NVBadge_2D.eps</dc:title></cc:Work></rdf:RDF></metadata><defs
   id="defs8" /><sodipodi:namedview
   inkscape:document-rotation="0"
   pagecolor="#000000"
   bordercolor="#666666"
   borderopacity="1"
   objecttolerance="10"
   gridtolerance="10"
   guidetolerance="10"
   inkscape:pageopacity="0"
   inkscape:pageshadow="2"
   inkscape:window-width="1920"
   inkscape:window-height="946"
   id="namedview6"
   showgrid="false"
   inkscape:zoom="22.571276"
   inkscape:cx="15.499418"
   inkscape:cy="14.188617"
   inkscape:window-x="0"
   inkscape:window-y="0"
   inkscape:window-maximized="1"
   inkscape:current-layer="svg2" />
<title
   id="title4">generated by pstoedit version:3.44 from NVBadge_2D.eps</title>

<g
   id="g21"
   transform="matrix(1.1020096,0,0,1.1387491,-33.569183,-50.884262)"><path
     d="m 329.406,237.027 10.598,28.993 H 318.48 Z m -11.35,-11.289 -24.423,61.88 h 17.246 l 3.863,-10.934 h 28.903 l 3.656,10.934 h 18.722 L 341.418,225.73 Z m -49.033,61.903 h 17.497 v -61.922 l -17.5,-0.004 z m -121.467,-61.926 -14.598,49.078 -13.984,-49.074 -18.879,-0.004 19.972,61.926 h 25.207 l 20.133,-61.926 z m 70.725,13.484 h 7.52 c 10.91,0 17.966,4.898 17.966,17.609 0,12.714 -7.056,17.613 -17.966,17.613 h -7.52 z m -17.35,-13.484 v 61.926 h 28.366 c 15.113,0 20.048,-2.512 25.384,-8.148 3.769,-3.957 6.207,-12.641 6.207,-22.134 0,-8.707 -2.063,-16.468 -5.66,-21.304 -6.481,-8.649 -15.817,-10.34 -29.75,-10.34 z M 35.188,225.629 v 62.012 h 17.645 v -47.086 l 13.672,0.004 c 4.527,0 7.754,1.128 9.934,3.457 2.765,2.945 3.894,7.699 3.894,16.395 v 27.23 h 17.098 v -34.262 c 0,-24.453 -15.586,-27.75 -30.836,-27.75 H 35.188 Z m 137.583,0.086 0.007,61.926 h 17.489 v -61.926 z"
     fill="#000000"
     id="path19" /><g
     id="g16"><path
       id="path21"
       fill="#000000"
       d="m 82.211,102.414 c 0,0 22.504,-33.203 67.437,-36.638 V 53.73 c -49.769,3.997 -92.867,46.149 -92.867,46.149 0,0 24.41,70.565 92.867,77.026 V 164.101 C 99.411,157.781 82.211,102.414 82.211,102.414 Z m 67.437,36.223 v 11.726 c -37.968,-6.769 -48.507,-46.237 -48.507,-46.237 0,0 18.23,-20.195 48.507,-23.47 v 12.867 c -0.023,0 -0.039,-0.007 -0.058,-0.007 -15.891,-1.907 -28.305,12.938 -28.305,12.938 0,0 6.958,24.991 28.363,32.183 m 0,-107.125 V 53.73 c 1.461,-0.112 2.922,-0.207 4.391,-0.257 56.582,-1.907 93.449,46.406 93.449,46.406 0,0 -42.343,51.488 -86.457,51.488 -4.043,0 -7.828,-0.375 -11.383,-1.005 v 13.739 c 3.04,0.386 6.192,0.613 9.481,0.613 41.051,0 70.738,-20.965 99.484,-45.778 4.766,3.817 24.278,13.103 28.289,17.168 -27.332,22.883 -91.031,41.329 -127.144,41.329 -3.481,0 -6.824,-0.211 -10.11,-0.528 v 19.306 H 305.68 V 31.512 Z m 0,49.144 V 65.777 c 1.446,-0.101 2.903,-0.179 4.391,-0.226 40.688,-1.278 67.382,34.965 67.382,34.965 0,0 -28.832,40.043 -59.746,40.043 -4.449,0 -8.438,-0.715 -12.028,-1.922 V 93.523 c 15.84,1.914 19.028,8.911 28.551,24.786 l 21.18,-17.859 c 0,0 -15.461,-20.277 -41.524,-20.277 -2.833,-0.001 -5.544,0.198 -8.206,0.483" /></g></g>
</svg>
